<?xml version="1.0" standalone="no"?>
<!DOCTYPE svg PUBLIC "-//W3C//DTD SVG 20010904//EN"
 "http://www.w3.org/TR/2001/REC-SVG-20010904/DTD/svg10.dtd">
<svg version="1.0" xmlns="http://www.w3.org/2000/svg"
 width="512.000000pt" height="512.000000pt" viewBox="0 0 512.000000 512.000000"
 preserveAspectRatio="xMidYMid meet">
<metadata>
Created by potrace 1.11, written by Peter Selinger 2001-2013
</metadata>
<g transform="translate(0.000000,512.000000) scale(0.100000,-0.100000)"
fill="#000000" stroke="none">
<path d="M15 4783 c3 -10 53 -99 109 -198 57 -99 213 -371 346 -605 134 -234
619 -1082 1078 -1885 460 -803 876 -1531 925 -1618 49 -87 93 -155 97 -150 4
4 115 197 247 428 132 231 391 683 575 1005 290 507 958 1673 1542 2693 97
170 176 310 176 311 0 2 -11 6 -25 8 -13 3 -23 1 -22 -4 1 -5 -38 -30 -88 -56
-49 -26 -93 -51 -97 -57 -5 -7 -8 -7 -8 0 0 6 -3 6 -8 0 -4 -6 -89 -57 -188
-113 l-181 -102 -612 0 c-482 0 -610 -3 -605 -13 6 -9 4 -8 -8 1 -13 10 -17
10 -21 0 -4 -10 -6 -10 -6 1 -1 11 -4 11 -18 0 -11 -10 -14 -10 -9 -1 5 8 0
12 -16 12 -18 0 -20 -2 -8 -10 12 -8 11 -10 -7 -10 -12 0 -23 6 -26 13 -3 9
-7 9 -20 -2 -13 -10 -17 -10 -17 -1 0 8 -8 10 -22 6 -44 -13 -124 -18 -108 -7
12 8 6 11 -23 11 -23 0 -36 -4 -32 -10 3 -5 2 -10 -4 -10 -5 0 -12 6 -14 13
-4 10 -6 10 -6 0 -1 -15 -28 -18 -33 -4 -2 5 -20 3 -42 -4 -39 -14 -71 -10
-60 6 3 5 -4 9 -15 9 -12 0 -21 -7 -21 -15 0 -8 -5 -15 -11 -15 -5 0 -8 4 -5
9 3 5 -1 12 -10 15 -8 3 -12 2 -9 -4 11 -18 -24 -23 -40 -6 -9 9 -32 16 -50
16 -34 0 -54 -14 -35 -25 5 -3 10 -2 10 4 0 11 56 9 67 -3 4 -4 -7 -6 -24 -3
-18 3 -33 1 -33 -4 0 -12 83 -106 212 -241 44 -47 43 -28 46 -558 3 -392 9
-510 26 -515 23 -7 466 -15 841 -15 l390 0 -110 -61 c-60 -33 -196 -108 -302
-165 l-192 -104 -475 0 -476 0 0 833 c0 468 -4 826 -9 818 -5 -8 -11 -9 -15
-3 -3 5 -33 12 -66 16 -36 4 -60 12 -60 19 0 7 -4 6 -10 -3 -6 -10 -10 -11
-10 -2 0 6 -9 12 -21 12 -12 0 -17 -4 -13 -11 4 -8 0 -8 -15 0 -14 8 -21 8
-21 1 0 -5 -5 -10 -11 -10 -5 0 -7 5 -4 10 3 6 -1 10 -9 10 -9 0 -16 -4 -16
-10 0 -5 -21 -9 -46 -8 -30 0 -41 4 -33 9 10 6 3 9 -19 9 -22 0 -31 -4 -26
-11 4 -7 -1 -7 -16 1 -13 7 -33 9 -48 4 -45 -12 -52 -13 -46 -3 3 5 -9 9 -25
9 -17 0 -31 -4 -31 -8 0 -10 -30 -9 -47 1 -6 4 -14 4 -17 -1 -2 -4 -40 -7 -83
-5 -149 7 -293 8 -293 3 0 -3 -24 -4 -53 -3 -315 13 -397 13 -397 1 0 -17 -52
-16 -58 0 -2 7 -17 12 -34 12 -25 0 -28 -2 -19 -14 10 -12 3 -14 -49 -11 -35
2 -63 -1 -67 -8 -3 -6 -1 -7 5 -3 7 4 12 4 12 -1 -1 -19 -19 -35 -46 -38 -25
-2 -26 -1 -10 10 16 12 16 14 -6 29 -13 9 -24 13 -26 8 -1 -5 -16 -7 -32 -4
-19 3 -27 9 -23 18 3 8 -1 14 -11 14 -9 0 -13 -6 -10 -14 3 -9 -4 -15 -23 -18
-15 -3 -37 -9 -47 -13 -16 -7 -18 -5 -12 11 4 10 8 23 9 27 1 5 -27 24 -62 43
-388 208 -542 296 -535 303 3 4 114 8 247 11 l242 6 -269 2 c-252 2 -268 1
-261 -15z m2848 -370 c-7 -2 -19 -2 -25 0 -7 3 -2 5 12 5 14 0 19 -2 13 -5z
m-1855 -34 c-18 -12 -25 -11 -31 4 -4 10 2 13 20 9 18 -3 21 -7 11 -13z m-198
-28 c0 -6 -5 -13 -12 -17 -6 -4 -8 -3 -4 4 3 5 0 13 -6 15 -8 3 -6 6 5 6 9 1
17 -3 17 -8z m-112 -79 c3 -16 -2 -22 -15 -21 -10 0 -13 3 -5 6 15 6 16 29 2
36 -6 3 -5 4 2 3 7 -1 14 -12 16 -24z m42 6 c0 -4 -4 -8 -9 -8 -6 0 -12 4 -15
8 -3 5 1 9 9 9 8 0 15 -4 15 -9z m1670 -22 c0 -2 -7 -7 -16 -10 -8 -3 -12 -2
-9 4 6 10 25 14 25 6z m-70 -60 c0 -2 -8 -10 -17 -17 -16 -13 -17 -12 -4 4 13
16 21 21 21 13z m536 -1978 c-3 -106 -6 -268 -7 -360 0 -92 -3 -167 -7 -167
-20 3 -42 -2 -42 -10 0 -4 12 -6 26 -3 l26 5 -3 -99 c-2 -75 -7 -102 -18 -112
-11 -9 -11 -11 -2 -6 11 5 13 2 9 -14 -4 -12 -2 -20 2 -17 6 4 7 -531 1 -554
-1 -2 -62 59 -136 134 -74 76 -132 141 -129 146 3 5 0 8 -7 7 -7 -2 -15 11
-19 27 -3 17 -7 370 -9 787 l-3 756 162 -163 162 -163 -6 -194z"/>
<path d="M2755 1541 c-3 -5 -2 -12 3 -15 5 -3 9 1 9 9 0 17 -3 19 -12 6z"/>
<path d="M2710 1520 c0 -5 7 -7 15 -4 8 4 15 8 15 10 0 2 -7 4 -15 4 -8 0 -15
-4 -15 -10z"/>
<path d="M2813 1510 c-1 -11 1 -22 5 -24 4 -2 8 7 8 20 1 13 -1 24 -5 24 -4 0
-7 -9 -8 -20z"/>
<path d="M2726 1481 c-4 -5 -1 -13 5 -17 8 -4 9 -3 5 4 -4 7 -3 12 3 12 5 0
12 -5 14 -10 3 -6 4 -5 3 2 -3 16 -23 22 -30 9z"/>
<path d="M2127 4783 c18 -2 50 -2 70 0 21 2 7 4 -32 4 -38 0 -55 -2 -38 -4z"/>
<path d="M2263 4783 c9 -2 23 -2 30 0 6 3 -1 5 -18 5 -16 0 -22 -2 -12 -5z"/>
<path d="M2323 4783 c9 -2 25 -2 35 0 9 3 1 5 -18 5 -19 0 -27 -2 -17 -5z"/>
<path d="M2393 4783 c9 -2 25 -2 35 0 9 3 1 5 -18 5 -19 0 -27 -2 -17 -5z"/>
<path d="M2463 4783 c9 -2 25 -2 35 0 9 3 1 5 -18 5 -19 0 -27 -2 -17 -5z"/>
<path d="M2528 4783 c7 -3 16 -2 19 1 4 3 -2 6 -13 5 -11 0 -14 -3 -6 -6z"/>
<path d="M2698 4783 c78 -2 206 -2 285 0 78 1 14 3 -143 3 -157 0 -221 -2
-142 -3z"/>
<path d="M3178 4783 c12 -2 30 -2 40 0 9 3 -1 5 -23 4 -22 0 -30 -2 -17 -4z"/>
<path d="M4135 4773 c489 -7 885 -7 885 0 0 4 -242 6 -537 5 -296 -2 -452 -4
-348 -5z"/>
<path d="M2430 4436 c0 -9 40 -13 46 -5 3 5 -6 9 -20 9 -14 0 -26 -2 -26 -4z"/>
</g>
</svg>
